<svg width="40" height="40" viewBox="0 0 40 40" fill="none" xmlns="http://www.w3.org/2000/svg">
<circle cx="20" cy="20" r="20" fill="#F2F7F9"/>
<path d="M17.6667 20.3333V17.6667C17.6667 16.7826 18.0179 15.9348 18.643 15.3097C19.2681 14.6845 20.1159 14.3333 21 14.3333C21.8841 14.3333 22.7319 14.6845 23.357 15.3097C23.9821 15.9348 24.3333 16.7826 24.3333 17.6667V20.3333M16.3333 20.3333H25.6667C26.403 20.3333 27 20.9303 27 21.6667V26.3333C27 27.0697 26.403 27.6667 25.6667 27.6667H16.3333C15.597 27.6667 15 27.0697 15 26.3333V21.6667C15 20.9303 15.597 20.3333 16.3333 20.3333Z" stroke="#ED1C24" stroke-width="2" stroke-linecap="round" stroke-linejoin="round"/>
</svg>
