<svg width="33" height="32" viewBox="0 0 33 32" fill="none" xmlns="http://www.w3.org/2000/svg">
<path fill-rule="evenodd" clip-rule="evenodd" d="M13.8055 4.00432L6.71484 4.00024V28.0002H25.5163L25.5151 15.6292C25.5151 15.3348 25.4895 15.041 25.4406 14.7507C24.9519 11.8454 23.5265 9.88349 20.6003 10.3687L18.8015 10.6669L19.1019 8.88102C19.1507 8.5907 19.1753 8.29686 19.1753 8.00252C19.1753 5.057 16.7723 4.00432 13.8055 4.00432ZM9.53955 9.3335C9.53955 8.29796 10.379 7.4585 11.4146 7.4585H14.772C15.8075 7.4585 16.647 8.29796 16.647 9.3335C16.647 10.369 15.8075 11.2085 14.772 11.2085H11.4146C10.379 11.2085 9.53955 10.369 9.53955 9.3335ZM9.53955 14.6668C9.53955 13.6313 10.379 12.7918 11.4146 12.7918H20.8153C21.8508 12.7918 22.6903 13.6313 22.6903 14.6668C22.6903 15.7024 21.8508 16.5418 20.8153 16.5418H11.4146C10.379 16.5418 9.53955 15.7024 9.53955 14.6668ZM9.53955 18.6668C9.53955 17.6313 10.379 16.7918 11.4146 16.7918H20.8153C21.8508 16.7918 22.6903 17.6313 22.6903 18.6668C22.6903 19.7024 21.8508 20.5418 20.8153 20.5418H11.4146C10.379 20.5418 9.53955 19.7024 9.53955 18.6668ZM9.53955 22.6668C9.53955 21.6313 10.379 20.7918 11.4146 20.7918H20.8153C21.8508 20.7918 22.6903 21.6313 22.6903 22.6668C22.6903 23.7024 21.8508 24.5418 20.8153 24.5418H11.4146C10.379 24.5418 9.53955 23.7024 9.53955 22.6668ZM22.3468 6.12632C22.6642 6.39909 22.9607 6.69329 23.2352 7.00812C23.0015 6.92686 22.7633 6.85882 22.5212 6.80378C22.4737 6.57278 22.4154 6.34683 22.3468 6.12632Z" fill="black" fill-opacity="0.5"/>
</svg>
