<svg width="55" height="55" viewBox="0 0 55 55" fill="none" xmlns="http://www.w3.org/2000/svg">
<rect width="55" height="55" rx="12" fill="#ED1C24"/>
<path d="M33 38.25V35.75C33 34.4239 32.4732 33.1521 31.5355 32.2145C30.5979 31.2768 29.3261 30.75 28 30.75H19.25C17.9239 30.75 16.6521 31.2768 15.7145 32.2145C14.7768 33.1521 14.25 34.4239 14.25 35.75V38.25M34.25 25.75L36.75 28.25L41.75 23.25M28.625 20.75C28.625 23.5114 26.3864 25.75 23.625 25.75C20.8636 25.75 18.625 23.5114 18.625 20.75C18.625 17.9886 20.8636 15.75 23.625 15.75C26.3864 15.75 28.625 17.9886 28.625 20.75Z" stroke="white" stroke-width="2" stroke-linecap="round" stroke-linejoin="round"/>
</svg>
