<svg width="40" height="40" viewBox="0 0 40 40" fill="none" xmlns="http://www.w3.org/2000/svg">
<circle cx="20" cy="20" r="20" fill="#F2F7F9"/>
<path d="M29.0834 18.6183V19.5C29.0822 21.5666 28.413 23.5774 27.1756 25.2326C25.9383 26.8878 24.199 28.0986 22.2172 28.6846C20.2355 29.2705 18.1174 29.2002 16.1789 28.484C14.2404 27.7678 12.5853 26.4442 11.4605 24.7105C10.3357 22.9769 9.80149 20.9261 9.93746 18.864C10.0734 16.8019 10.8723 14.839 12.215 13.268C13.5577 11.6971 15.3723 10.6022 17.388 10.1468C19.4038 9.69137 21.5128 9.89974 23.4004 10.7408M29.0834 11.8333L19.5 21.4262L16.625 18.5512" stroke="#ED1C24" stroke-width="2" stroke-linecap="round" stroke-linejoin="round"/>
</svg>
