<svg width="27" height="27" viewBox="0 0 27 27" fill="none" xmlns="http://www.w3.org/2000/svg">
<path d="M3.9375 22.5C3.4875 22.5 3.09375 22.3312 2.75625 21.9937C2.41875 21.6562 2.25 21.2625 2.25 20.8125V6.1875C2.25 5.7375 2.41875 5.34375 2.75625 5.00625C3.09375 4.66875 3.4875 4.5 3.9375 4.5H23.0625C23.5125 4.5 23.9062 4.66875 24.2437 5.00625C24.5812 5.34375 24.75 5.7375 24.75 6.1875V20.8125C24.75 21.2625 24.5812 21.6562 24.2437 21.9937C23.9062 22.3312 23.5125 22.5 23.0625 22.5H3.9375ZM13.5 14.0062L3.9375 7.73438V20.8125H23.0625V7.73438L13.5 14.0062ZM13.5 12.3187L22.95 6.1875H4.07812L13.5 12.3187ZM3.9375 7.73438V6.1875V7.73438V20.8125V7.73438Z" fill="#ED1C24"/>
</svg>
