<svg width="34" height="34" viewBox="0 0 34 34" fill="none" xmlns="http://www.w3.org/2000/svg">
<path fill-rule="evenodd" clip-rule="evenodd" d="M17.0591 0.000610352V0H17.4432V0.00406141C21.6628 0.0800779 25.5036 1.40991 28.3221 3.79604C31.2326 6.26002 33.0313 9.83368 33.0313 14.2456V17.5077C33.0313 17.5844 33.031 17.6607 33.0304 17.7368C32.9966 23.4009 31.2279 27.3647 28.3275 29.9108C25.4952 32.3971 21.6433 33.4788 17.4432 33.5405V33.5429H17.2016C17.1541 33.5432 17.1065 33.5433 17.0589 33.5433H16.0355H15.972V33.5436C15.9296 33.5436 15.8873 33.5435 15.845 33.5433H15.5877V33.5408C11.3875 33.4791 7.53533 32.3972 4.70281 29.9026C1.77428 27.3235 0 23.2914 0 17.5077V14.2456C0 14.1766 0.000439151 14.1079 0.00131486 14.0394C0.0564812 9.72227 1.84416 6.22152 4.70915 3.79604C7.6129 1.33775 11.6017 0.000610352 15.972 0.000610352V0.000704524L16.0359 0.000610352H17.0591ZM5.27094 4.45112C7.90689 2.22587 11.5346 0.950769 15.5877 0.863234V0.922067H16.0355H17.0589C21.2597 0.922067 25.0424 2.20742 27.7674 4.51439C30.4857 6.81567 32.1731 10.15 32.1731 14.3092V17.5713C32.1731 17.6248 32.1729 17.6781 32.1726 17.7313C32.1276 23.2101 30.4255 26.9119 27.7545 29.25C25.0375 31.6284 21.2522 32.6534 16.9985 32.6219L16.9954 32.6218H15.972C11.75 32.6218 7.97948 31.5816 5.26923 29.2024C2.56904 26.8321 0.857797 23.0767 0.857797 17.5077V14.2456C0.857797 13.8556 0.872626 13.473 0.90175 13.0977C1.18328 9.47038 2.80059 6.53657 5.27094 4.45112ZM20.4491 11.9423V9.51172C20.3212 9.47974 20.1933 9.46375 20.0654 9.44776C19.9374 9.43176 19.8095 9.41577 19.6816 9.38379H18.2744C17.5068 9.44776 16.8032 9.57568 16.2276 10.0234C15.524 10.5351 15.1402 11.2387 15.0123 12.0702C14.9483 12.3901 14.9483 12.7738 14.9483 13.0936V13.0937V14.6927V14.8846H12.6456V17.5711H14.9483V24.4151H17.7627V17.635H20.0654C20.1293 16.7396 20.2572 15.8441 20.3852 14.9487L20.3852 14.9486H19.8735H17.6987V13.0297C17.7627 12.1982 18.2104 11.9423 18.8501 11.9423H20.2573H20.4491Z" fill="#ED1C24"/>
</svg>
