<svg width="29" height="24" viewBox="0 0 29 24" fill="none" xmlns="http://www.w3.org/2000/svg">
<path d="M28.5781 3.69281C28.4569 2.87613 28.0495 2.13024 27.4296 1.59036C26.8098 1.05048 26.0186 0.752346 25.1994 0.75H4.16092C3.34176 0.752346 2.55054 1.05048 1.93069 1.59036C1.31085 2.13024 0.903408 2.87613 0.782227 3.69281L14.6802 12.7584L28.5781 3.69281Z" fill="#1C2E45" fill-opacity="0.6"/>
<path d="M15.185 14.6625C15.0345 14.7606 14.8592 14.8128 14.68 14.8128C14.5008 14.8128 14.3254 14.7606 14.175 14.6625L0.72998 5.89315V19.7916C0.730965 20.7085 1.09274 21.5876 1.73592 22.236C2.3791 22.8844 3.25116 23.249 4.16075 23.25H25.1992C26.1088 23.249 26.9809 22.8844 27.624 22.236C28.2672 21.5876 28.629 20.7085 28.63 19.7916V5.89221L15.185 14.6625Z" fill="#1C2E45" fill-opacity="0.6"/>
</svg>
