<svg width="30" height="31" viewBox="0 0 30 31" fill="none" xmlns="http://www.w3.org/2000/svg">
<path fill-rule="evenodd" clip-rule="evenodd" d="M13.1249 8.36604L9.36001 4.23802C8.84814 3.73391 8.04038 3.75696 7.55584 4.28949L6.71443 5.21424L6.51516 5.44438C4.96841 7.32178 4.56328 10.054 5.49733 12.4642C6.87267 16.0131 8.55258 18.8763 10.5371 21.0536C12.5215 23.231 15.1302 25.0733 18.3632 26.5806C20.6503 27.6469 23.2544 27.1173 24.9644 25.238L25.9006 24.209C26.3668 23.6967 26.3664 22.8946 25.8999 22.3827L22.135 18.2546C21.6231 17.7505 20.8153 17.7736 20.3308 18.3061L18.6057 20.2021L18.243 20.0567C15.0041 18.691 12.4484 15.8028 11.3057 12.1926L13.1256 10.1924C13.5918 9.68008 13.5915 8.87795 13.1249 8.36604Z" fill="black" fill-opacity="0.5"/>
</svg>
