<svg width="33" height="34" viewBox="0 0 33 34" fill="none" xmlns="http://www.w3.org/2000/svg">
<path fill-rule="evenodd" clip-rule="evenodd" d="M17.0678 0.118713V0.118042H17.4444V0.122087C21.5837 0.196533 25.3518 1.50098 28.1172 3.84214C30.9728 6.25967 32.7375 9.766 32.7375 14.0943V17.2929C32.7375 17.3964 32.7369 17.4993 32.7358 17.6017C32.6857 23.1122 30.9541 26.9745 28.1224 29.4602C25.3432 31.8999 21.5641 32.9608 17.4444 33.0213V33.0238H17.1921L17.0679 33.024H16.0644H16.0023V33.0246C15.9477 33.0246 15.893 33.0244 15.8384 33.024H15.6254V33.0218C11.5059 32.9613 7.7266 31.9001 4.94735 29.4525C2.07368 26.9217 0.333374 22.9656 0.333374 17.2929V14.0943C0.333374 14.0267 0.333805 13.9593 0.334664 13.8921C0.388788 9.65669 2.1427 6.22189 4.95369 3.84214C7.80258 1.43029 11.7157 0.118713 16.0023 0.118713V0.118806L16.0651 0.118713H17.0678ZM5.51532 4.49721C8.09812 2.31683 11.6531 1.06711 15.6254 0.981249V1.0387H16.0644H17.0679C21.1852 1.0387 24.8922 2.2985 27.5623 4.55902C30.2257 6.81386 31.8791 10.0809 31.8791 14.1565V17.3551C31.8791 17.4356 31.8787 17.5156 31.878 17.5953C31.8174 22.9199 30.1529 26.5213 27.5497 28.8C24.8877 31.1303 21.1785 32.135 17.009 32.1041L17.0058 32.1041H16.0023C11.8639 32.1041 8.16916 31.0844 5.51376 28.7534C2.86843 26.4312 1.19117 22.7515 1.19117 17.2929V14.0943C1.19117 13.8396 1.19763 13.5881 1.21039 13.3397C1.4018 9.61437 3.01136 6.61104 5.51532 4.49721ZM22.0853 10.7697C22.7752 11.3968 23.1515 12.2121 23.2142 13.0902C23.3397 14.1563 23.4651 19.2364 23.1515 20.428C22.7125 21.9332 21.709 22.8739 20.1411 23.1248C18.9495 23.3129 13.6813 23.3129 12.6152 23.0621C11.0473 22.6858 10.1065 21.6823 9.85565 20.1144C9.6675 18.9855 9.60478 13.5919 9.91836 12.463C10.3574 10.9578 11.3608 10.0798 12.866 9.82891C14.2458 9.57804 18.0088 9.64076 19.5767 9.76619C20.5174 9.82891 21.3955 10.0798 22.0853 10.7697ZM19.7648 21.9332C21.0192 21.8077 21.7718 21.0551 21.9599 19.8635C22.1481 18.6719 22.1481 14.3445 22.0226 13.1529C21.8972 11.8985 21.1446 11.146 19.953 10.9578C18.7614 10.8324 14.4339 10.8324 13.2423 10.9578C12.0507 11.0832 11.2981 11.8358 11.11 13.0274C10.9218 14.2818 10.9845 18.9855 11.11 19.9262C11.2354 20.9297 11.7999 21.5569 12.7406 21.8077C13.7441 22.1213 18.6987 22.0586 19.7648 21.9332ZM12.9915 16.4768C12.9915 14.5326 14.5594 12.9647 16.5036 12.9647C18.4478 12.9647 20.0157 14.5326 20.0157 16.4768C20.0157 18.421 18.4478 19.989 16.5036 19.989C14.5594 19.989 12.9915 18.421 12.9915 16.4768ZM14.2458 16.4768C14.2458 17.7312 15.2493 18.7346 16.5036 18.7346C17.7579 18.7346 18.7614 17.7312 18.7614 16.4768C18.7614 15.2225 17.7579 14.2191 16.5036 14.2191C15.2493 14.2191 14.2458 15.2225 14.2458 16.4768ZM20.1411 13.6546C20.5801 13.6546 20.9564 13.2783 20.9564 12.8393C20.9564 12.4003 20.6429 12.024 20.1411 12.024C19.7021 12.024 19.3258 12.4003 19.3258 12.8393C19.3258 13.2783 19.7021 13.6546 20.1411 13.6546Z" fill="#ED1C24"/>
</svg>
