<svg width="34" height="34" viewBox="0 0 34 34" fill="none" xmlns="http://www.w3.org/2000/svg">
<path fill-rule="evenodd" clip-rule="evenodd" d="M1.90705 15.7846C1.87621 10.3263 3.53826 6.64754 6.17522 4.3261C7.36684 3.27708 8.7706 2.49363 10.3315 1.94922C12.2395 1.28447 14.3804 0.976327 16.6554 0.976327V0.975961H16.7183H17.7214H17.7217L17.74 0.975967C21.8775 0.989122 25.5571 2.01093 28.2029 4.3269C30.8556 6.649 32.5329 10.3284 32.5329 15.787V18.9855C32.5329 23.0612 30.8795 26.3282 28.2161 28.5831C25.5459 30.8436 21.839 32.1034 17.7217 32.1034H16.7182C12.6009 32.1034 8.89397 30.8436 6.22382 28.5831C3.56039 26.3282 1.90705 23.0612 1.90705 18.9855L1.90706 15.787L1.90705 15.7846ZM10.0378 1.14313C11.9511 0.474445 14.0661 0.153248 16.2792 0.120789V0.118164H16.5759L16.6555 0.118042H17.659L17.7217 0.118164H17.7391H18.098V0.120911C22.2178 0.181332 25.997 1.24224 28.7762 3.68198C31.2311 5.83703 32.8593 9.0267 33.2816 13.4281C33.3537 14.1789 33.3907 14.9649 33.3907 15.787L33.3907 15.7871V18.9857C33.3907 19.5267 33.3631 20.0548 33.3093 20.5696C32.9325 24.1735 31.2691 27.1225 28.7704 29.2379C26.0051 31.579 22.2371 32.8834 18.098 32.9579V33.0236H17.7214V32.9613H16.7183H16.6554V32.9617C16.6141 32.9617 16.5727 32.9616 16.5314 32.9613H16.2792V32.9583C12.1401 32.8838 8.3721 31.5794 5.60676 29.2382C2.75115 26.8207 0.98645 23.3144 0.98645 18.986V15.7875C0.98645 10.1454 2.72723 6.205 5.60094 3.68234C6.88743 2.55301 8.38819 1.71911 10.0378 1.14313ZM17.9102 18.045C17.9102 16.9788 18.0983 15.9753 19.4154 15.9753C20.6697 15.9753 20.6697 17.1669 20.607 17.9822V21.8707H23.0529V17.4805C23.0529 15.3482 22.6139 13.7175 20.1053 13.7175C18.9136 13.7175 18.0983 14.4074 17.7847 15.0346V13.9684H15.4015V21.9961H17.9102V18.045ZM13.8963 13.9687H11.3876V21.9337H13.8963V13.9687ZM14.0842 11.4596C14.0842 10.6443 13.4571 10.0172 12.6418 10.0172C11.8264 10.0172 11.1993 10.6443 11.1993 11.4596C11.1993 12.2749 11.8264 12.9021 12.6418 12.9021C13.4571 12.9021 14.0842 12.2749 14.0842 11.4596Z" fill="#ED1C24"/>
</svg>
