<svg width="55" height="55" viewBox="0 0 55 55" fill="none" xmlns="http://www.w3.org/2000/svg">
<rect width="55" height="55" rx="12" fill="#ED1C24"/>
<path d="M27 13.9355L15 18.2998V28C15 38.9609 26.6445 41.9424 26.7617 41.9717L27 42.0293L27.2383 41.9717C27.3555 41.9424 39 38.9609 39 28V18.2998L27 13.9355ZM37 28C37 36.6787 28.5908 39.5068 27.0039 39.9629C25.4736 39.5098 17 36.6045 17 28V19.7002L27 16.0645L37 19.7002V28Z" fill="white"/>
<path d="M21.707 27.293L20.293 28.707L25 33.4141L33.707 24.707L32.293 23.293L25 30.5859L21.707 27.293Z" fill="white"/>
</svg>
