<svg width="40" height="40" viewBox="0 0 40 40" fill="none" xmlns="http://www.w3.org/2000/svg">
<circle cx="20" cy="20" r="20" fill="#F2F7F9"/>
<g clip-path="url(#clip0_149_1373)">
<path d="M29.6333 16.6H29.2667V12.5667C29.2667 12.3642 29.1025 12.2 28.9 12.2H22.6667V10.3667C22.6667 10.1642 22.5025 10 22.3 10H15.7C15.4975 10 15.3333 10.1642 15.3333 10.3667V12.2H9.1C8.89751 12.2 8.73333 12.3642 8.73333 12.5667V16.6H8.36667C8.16418 16.6 8 16.7642 8 16.9667V18.4333C8 18.6358 8.16418 18.8 8.36667 18.8H8.73333V31.6333C8.73333 31.8358 8.89751 32 9.1 32H28.9C29.1025 32 29.2667 31.8358 29.2667 31.6333V18.8H29.6333C29.8358 18.8 30 18.6358 30 18.4333V16.9667C30 16.7642 29.8358 16.6 29.6333 16.6ZM22.6667 12.9333H28.5333V16.6H22.6667V12.9333ZM16.0667 10.7333H21.9333V16.6H16.0667V10.7333ZM9.46667 12.9333H15.3333V16.6H9.46667V12.9333ZM25.9667 31.2667H21.2V28.3333H25.9667V31.2667ZM25.9667 27.6H21.2V23.9333H25.9667V27.6ZM25.9667 23.2H21.2V21.3667H25.9667V23.2ZM28.5333 31.2667H26.7V21C26.7 20.7975 26.5358 20.6333 26.3333 20.6333H20.8333C20.6308 20.6333 20.4667 20.7975 20.4667 21V31.2667H9.46667V18.8H28.5333V31.2667ZM29.2667 18.0667H8.73333V17.3333H29.2667V18.0667Z" fill="#ED1C24" stroke="#ED1C24" stroke-width="0.5"/>
<path d="M24.8667 26.1333C25.0692 26.1333 25.2333 25.9692 25.2333 25.7667V25.4C25.2333 25.1975 25.0692 25.0333 24.8667 25.0333C24.6642 25.0333 24.5 25.1975 24.5 25.4V25.7667C24.5 25.9692 24.6642 26.1333 24.8667 26.1333Z" fill="#ED1C24" stroke="#ED1C24" stroke-width="0.5"/>
<path d="M20.8333 12.5667H20.1V11.8333C20.1 11.6308 19.9358 11.4667 19.7333 11.4667H18.2667C18.0642 11.4667 17.9 11.6308 17.9 11.8333V12.5667H17.1667C16.9642 12.5667 16.8 12.7308 16.8 12.9333V14.4C16.8 14.6025 16.9642 14.7667 17.1667 14.7667H17.9V15.5C17.9 15.7025 18.0642 15.8667 18.2667 15.8667H19.7333C19.9358 15.8667 20.1 15.7025 20.1 15.5V14.7667H20.8333C21.0358 14.7667 21.2 14.6025 21.2 14.4V12.9333C21.2 12.7308 21.0358 12.5667 20.8333 12.5667ZM20.4667 14.0333H19.7333C19.5308 14.0333 19.3667 14.1975 19.3667 14.4V15.1333H18.6333V14.4C18.6333 14.1975 18.4691 14.0333 18.2667 14.0333H17.5333V13.3H18.2667C18.4691 13.3 18.6333 13.1358 18.6333 12.9333V12.2H19.3667V12.9333C19.3667 13.1358 19.5308 13.3 19.7333 13.3H20.4667V14.0333Z" fill="#ED1C24"/>
</g>
<defs>
<clipPath id="clip0_149_1373">
<rect width="22" height="22" fill="white" transform="translate(8 10)"/>
</clipPath>
</defs>
</svg>
