<svg width="68" height="12" viewBox="0 0 68 12" fill="none" xmlns="http://www.w3.org/2000/svg">
<path d="M6.5 0L8.03444 4.58359H13L8.98278 7.41641L10.5172 12L6.5 9.16718L2.48278 12L4.01722 7.41641L0 4.58359H4.96556L6.5 0Z" fill="#FFDD10"/>
<path d="M47.5 0L49.0344 4.58359H54L49.9828 7.41641L51.5172 12L47.5 9.16718L43.4828 12L45.0172 7.41641L41 4.58359H45.9656L47.5 0Z" fill="#FFDD10"/>
<path d="M20.5 0L22.0344 4.58359H27L22.9828 7.41641L24.5172 12L20.5 9.16718L16.4828 12L18.0172 7.41641L14 4.58359H18.9656L20.5 0Z" fill="#FFDD10"/>
<path d="M61.5 0L63.0344 4.58359H68L63.9828 7.41641L65.5172 12L61.5 9.16718L57.4828 12L59.0172 7.41641L55 4.58359H59.9656L61.5 0Z" fill="#FFDD10"/>
<path d="M34.5 0L36.0344 4.58359H41L36.9828 7.41641L38.5172 12L34.5 9.16718L30.4828 12L32.0172 7.41641L28 4.58359H32.9656L34.5 0Z" fill="#FFDD10"/>
</svg>
