<svg width="40" height="40" viewBox="0 0 40 40" fill="none" xmlns="http://www.w3.org/2000/svg">
<circle cx="20" cy="20" r="20" fill="#F2F7F9"/>
<g clip-path="url(#clip0_149_1384)">
<path d="M16.625 9.95834V12.8333M22.375 9.95834V12.8333M16.625 28.1667V31.0417M22.375 28.1667V31.0417M27.1666 17.625H30.0416M27.1666 22.4167H30.0416M8.95831 17.625H11.8333M8.95831 22.4167H11.8333M13.75 12.8333H25.25C26.3085 12.8333 27.1666 13.6915 27.1666 14.75V26.25C27.1666 27.3086 26.3085 28.1667 25.25 28.1667H13.75C12.6914 28.1667 11.8333 27.3086 11.8333 26.25V14.75C11.8333 13.6915 12.6914 12.8333 13.75 12.8333ZM16.625 17.625H22.375V23.375H16.625V17.625Z" stroke="#ED1C24" stroke-width="2" stroke-linecap="round" stroke-linejoin="round"/>
</g>
<defs>
<clipPath id="clip0_149_1384">
<rect width="23" height="23" fill="white" transform="translate(8 9)"/>
</clipPath>
</defs>
</svg>
