<svg width="55" height="55" viewBox="0 0 55 55" fill="none" xmlns="http://www.w3.org/2000/svg">
<rect width="55" height="55" rx="12" fill="#ED1C24"/>
<g clip-path="url(#clip0_313_427)">
<path d="M27.4986 17.1898C21.8136 17.1898 17.1885 21.8149 17.1885 27.4999C17.1885 33.1849 21.8136 37.81 27.4986 37.81C33.1835 37.81 37.8086 33.1849 37.8086 27.4999C37.8086 21.8149 33.1836 17.1898 27.4986 17.1898ZM27.4986 35.9354C22.8472 35.9354 19.063 32.1512 19.063 27.4999C19.063 22.8486 22.8472 19.0644 27.4986 19.0644C32.1499 19.0644 35.9341 22.8486 35.9341 27.4999C35.9341 32.1512 32.15 35.9354 27.4986 35.9354Z" fill="white"/>
<path d="M31.5224 24.0254L26.5614 28.9863L23.475 25.8999C23.1091 25.5339 22.5156 25.5339 22.1495 25.8999C21.7835 26.266 21.7835 26.8594 22.1495 27.2255L25.8986 30.9746C26.0817 31.1576 26.3215 31.2491 26.5614 31.2491C26.8012 31.2491 27.0411 31.1577 27.2241 30.9746L32.8478 25.3509C33.2138 24.9848 33.2138 24.3914 32.8478 24.0254C32.4818 23.6593 31.8884 23.6593 31.5224 24.0254Z" fill="white"/>
<path d="M42.1578 20.9284C42.1547 20.9264 38.8842 18.9688 38.8842 18.9688L38.1501 15.9284C37.8244 14.5792 36.5838 13.6775 35.1999 13.7849L31.473 14.0733C31.473 14.0733 29.3262 12.1786 29.3219 12.1751C28.2654 11.2751 26.7317 11.2751 25.6752 12.1751C25.671 12.1786 23.5242 14.0733 23.5242 14.0733L19.7973 13.7849C18.4244 13.6783 17.1934 14.5642 16.8554 15.8947L15.8333 19.1512C15.8333 19.1512 12.8461 20.9259 12.8422 20.9284C11.6598 21.6551 11.1858 23.1137 11.7153 24.3966L12.9905 27.4868L11.7153 30.577C11.1858 31.8599 11.6598 33.3185 12.8422 34.0452C12.8459 34.0475 16.11 35.9924 16.11 35.9924L16.8472 39.0453C17.1553 40.3218 18.2825 41.1975 19.575 41.1974C19.7727 41.1974 19.5507 41.2049 23.4855 40.9033C23.4855 40.9033 25.6718 42.8219 25.6753 42.8248C26.2035 43.2748 26.8511 43.4998 27.4987 43.4998C28.1462 43.4998 28.7938 43.2748 29.322 42.8248C29.3255 42.8218 31.5118 40.9033 31.5118 40.9033L35.1999 41.1888C36.5835 41.2957 37.8245 40.3944 38.1502 39.0453L38.8843 36.0048C42.8863 33.6092 42.0377 34.1194 42.1579 34.0452C43.3402 33.3185 43.8142 31.8599 43.2847 30.5769L42.0095 27.4867L43.2847 24.3965C43.8141 23.1137 43.3402 21.6551 42.1578 20.9284ZM40.1291 27.8444L41.5519 31.2921C41.7278 31.7184 41.5714 32.2029 41.1801 32.4459L37.5841 34.5985C37.3683 34.7276 37.2134 34.9382 37.1544 35.1827L36.3279 38.6054C36.2194 39.0551 35.8065 39.3554 35.3445 39.3199L31.2627 39.004C31.0113 38.9845 30.762 39.0674 30.5722 39.234L28.102 41.4016C27.7514 41.6967 27.2458 41.6967 26.8952 41.4015L24.4251 39.234C24.2353 39.0674 23.9859 38.9843 23.7346 39.004L19.6528 39.3199C19.1912 39.3555 18.778 39.0551 18.6694 38.6054L17.8397 35.1691C17.7805 34.924 17.625 34.713 17.4083 34.5839L13.8193 32.4454C13.4285 32.2022 13.2724 31.7181 13.4482 31.2921L14.871 27.8443C14.9655 27.6153 14.9655 27.3582 14.871 27.1292L13.448 23.6815C13.2723 23.2557 13.4282 22.7719 13.8186 22.5286L17.099 20.5797C17.2975 20.4618 17.4455 20.2748 17.5146 20.0546C18.7235 16.2001 18.6553 16.4263 18.6693 16.3683C18.7778 15.9186 19.19 15.6178 19.6527 15.6538L23.7749 15.9729C24.0278 15.9923 24.2774 15.9087 24.4674 15.7411L26.8961 13.5976C27.2462 13.3035 27.7508 13.3035 28.101 13.5975L30.5298 15.7411C30.7198 15.9089 30.97 15.9923 31.2223 15.9729L35.3444 15.6538C35.8055 15.6182 36.2193 15.9186 36.3278 16.3683L37.1543 19.791C37.2134 20.0355 37.3682 20.246 37.584 20.3753L41.18 22.5278C41.5714 22.7708 41.7278 23.2552 41.5518 23.6815L40.129 27.1292C40.0345 27.3583 40.0345 27.6154 40.1291 27.8444Z" fill="white"/>
</g>
<defs>
<clipPath id="clip0_313_427">
<rect width="32" height="32" fill="white" transform="translate(11.5 11.5)"/>
</clipPath>
</defs>
</svg>
