<svg width="34" height="34" viewBox="0 0 34 34" fill="none" xmlns="http://www.w3.org/2000/svg">
<path fill-rule="evenodd" clip-rule="evenodd" d="M17.3952 0.118713V0.118042H17.7718V0.122101C21.9108 0.196693 25.6786 1.50112 28.4438 3.84214C31.2995 6.25967 33.0642 9.766 33.0642 14.0943V17.2929L33.0641 17.3681C33.0614 23.0033 31.3211 26.9395 28.4496 29.4602C25.6704 31.8999 21.8914 32.9608 17.7718 33.0213V33.0238H17.5193L17.3951 33.024H16.3916H16.329V33.0246C16.2943 33.0246 16.2596 33.0245 16.2249 33.0244C16.2049 33.0243 16.185 33.0242 16.1651 33.024H15.9526V33.0218C11.8329 32.9614 8.05338 31.9002 5.27401 29.4525C2.40034 26.9217 0.660034 22.9656 0.660034 17.2929V14.0943C0.660034 14.0267 0.660465 13.9593 0.661324 13.8921C0.715448 9.65669 2.46936 6.22189 5.28035 3.84214C8.12924 1.43029 12.0423 0.118713 16.329 0.118713V0.118806L16.3917 0.118713H17.3952L17.3952 0.118713ZM5.84198 4.49721C8.42489 2.31674 11.9801 1.067 15.9526 0.981238V1.0387H16.3916H17.3951C21.5124 1.0387 25.2193 2.2985 27.8895 4.55902C30.5529 6.81386 32.2063 10.0809 32.2063 14.1565V17.3551L32.2063 17.3685C32.1909 22.8178 30.5164 26.4891 27.8764 28.8C25.2143 31.1303 21.5052 32.135 17.3356 32.1041L17.3325 32.1041H16.329C12.1906 32.1041 8.49582 31.0844 5.84042 28.7534C3.19509 26.4312 1.51783 22.7515 1.51783 17.2929V14.0943C1.51783 13.8396 1.52429 13.5881 1.53705 13.3397C1.72846 9.61437 3.33802 6.61104 5.84198 4.49721ZM21.8477 13.9055L21.9104 13.8428C21.9219 13.8333 21.9333 13.8238 21.9447 13.8143C22.3056 13.5138 22.6022 13.2669 22.663 12.9021C22.7258 12.8394 22.7728 12.7766 22.8198 12.7139C22.8669 12.6512 22.9139 12.5885 22.9766 12.5258C22.5376 12.7139 22.0359 12.8394 21.5341 12.9021C22.0986 12.5258 22.4749 12.0868 22.663 11.4596H22.6003C22.1613 11.7105 21.5969 11.8986 21.0951 12.024C21.0324 12.024 21.0324 12.024 20.9697 11.9613C20.3425 11.3342 19.5899 11.0833 18.7119 11.2087C17.9593 11.3342 17.3949 11.7732 16.9559 12.4003C16.6423 12.9021 16.5168 13.4665 16.5796 14.0937C16.6423 14.2191 16.6423 14.2818 16.6423 14.4073C14.5099 14.2818 12.6911 13.3411 11.3114 11.7105C10.9978 12.2749 10.9351 12.9021 11.0605 13.592C11.1859 14.2191 11.5622 14.7836 12.1267 15.1599C11.7504 15.1599 11.3741 15.0344 10.9978 14.8463C10.9978 15.348 11.1232 15.787 11.3741 16.226C11.7504 16.8532 12.3148 17.2295 13.0674 17.4177H13.0047C12.6284 17.5431 12.2521 17.5431 11.8758 17.4804C12.1267 18.2957 12.942 19.2364 14.3218 19.2991C13.9455 19.6127 13.5065 19.8636 13.0674 20.0517C12.2521 20.428 11.3741 20.5535 10.4961 20.428L10.5588 20.4908C11.8131 21.3061 13.1929 21.6824 14.6981 21.6196C14.8601 21.5994 15.0156 21.5857 15.1687 21.5722C15.4899 21.5438 15.8008 21.5164 16.1405 21.4315C17.5203 21.1179 18.7119 20.428 19.7154 19.4246C20.2798 18.7974 20.7188 18.1075 21.0951 17.3549C21.4714 16.6023 21.6596 15.8497 21.785 15.0344C21.8477 14.6581 21.8477 14.2818 21.8477 13.9055Z" fill="#ED1C24"/>
</svg>
