<svg width="33" height="34" viewBox="0 0 33 34" fill="none" xmlns="http://www.w3.org/2000/svg">
<path fill-rule="evenodd" clip-rule="evenodd" d="M16.7413 0.118713V0.118042H17.1179V0.122093C21.2571 0.196597 25.0251 1.50103 27.7904 3.84214C30.646 6.25967 32.4107 9.766 32.4107 14.0943V17.2929C32.4107 17.35 32.4105 17.4069 32.4102 17.4637C32.388 23.0478 30.6512 26.9538 27.7959 29.4602C25.0167 31.8999 21.2376 32.9608 17.1179 33.0213V33.0238H16.8656L16.7414 33.024H15.738H15.6756V33.0246C15.6209 33.0246 15.5662 33.0244 15.5117 33.024H15.299V33.0218C11.1793 32.9613 7.39989 31.9002 4.62057 29.4525C1.75812 26.9316 0.0202094 22.9965 0.00667235 17.3593L0.0065918 17.2929V14.0943C0.0065918 14.0267 0.00702265 13.9593 0.00788182 13.8921C0.0620059 9.65669 1.81592 6.22189 4.6269 3.84214C7.47579 1.43029 11.3889 0.118713 15.6756 0.118713V0.118806L15.7383 0.118713H16.7413ZM5.18854 4.49721C7.7714 2.31678 11.3265 1.06705 15.299 0.981243V1.0387H15.738H16.7414C20.8587 1.0387 24.5657 2.2985 27.2358 4.55902C29.8993 6.81386 31.5526 10.0809 31.5526 14.1565V17.3551L31.5524 17.4613C31.5184 22.8595 29.8479 26.5023 27.2229 28.8C24.5609 31.1303 20.8517 32.135 16.6822 32.1041L16.679 32.1041H15.6756C11.5372 32.1041 7.84237 31.0844 5.18698 28.7534C2.54165 26.4312 0.864388 22.7515 0.864388 17.2929V14.0943C0.864388 13.8396 0.870847 13.5881 0.883607 13.3397C1.07502 9.61437 2.68458 6.61104 5.18854 4.49721ZM23.1384 20.4281C23.7656 19.1111 23.7656 13.9683 23.2011 12.5886C23.013 12.0869 22.6367 11.7106 22.1349 11.4597C21.1942 11.1461 13.2919 11.1461 10.7206 11.397C10.2188 11.397 9.77981 11.6478 9.46622 12.0241C8.52548 13.153 8.65091 18.7975 9.15264 20.1773C9.34079 20.7417 9.71709 21.118 10.2815 21.3062C11.5359 21.7452 21.3823 21.7452 22.3231 21.2434C22.6994 21.0553 22.9502 20.8044 23.1384 20.4281ZM17.8043 15.6633C18.1999 15.8711 18.5974 16.08 18.9991 16.2888C18.2152 16.6965 17.4469 17.1042 16.6786 17.5118C15.9103 17.9195 15.1421 18.3271 14.3581 18.7348V13.9056C15.5243 14.4654 16.6559 15.0599 17.8043 15.6633Z" fill="#ED1C24"/>
</svg>
